# File created by Blade
# Date/Time:  Tue Jan 27 18:55:59 2015
#---------------------------------------------------------
:version 1.10
:name HOM
:units
  mass 1.0
  length 1.000000
  angle deg
:documentation
     Acclaim Skeleton File
:root
   axis xyz
   order TX TY TZ RX RY RZ
   position 0.000000 0.000000 0.000000
   orientation 0 0 0
:bonedata
   begin
      id 1
      name Spine_dum
      direction 0.000000 1.000000 0.000000
      length 5.195262
      axis 0.0 0.0 0.0 xyz
   end
   begin
      id 2
      name LeftUpLeg_dum
      direction 1.000000 0.000000 0.000000
      length 3.351363
      axis 0.0 0.0 0.0 xyz
   end
   begin
      id 3
      name RightUpLeg_dum
      direction -1.000000 0.000000 0.000000
      length 3.351363
      axis 0.0 0.0 0.0 xyz
   end
   begin
      id 4
      name Spine
      direction 0.000000 1.000000 0.000000
      length 0.000000
      axis 0.0 0.0 0.0 xyz
      dof rx ry rz
   end
   begin
      id 5
      name Spine_dum1
      direction 0.000000 1.000000 0.000000
      length 15.653875
      axis 0.0 0.0 0.0 xyz
   end
   begin
      id 6
      name Spine_dum2
      direction 0.000000 1.000000 0.000000
      length 10.329768
      axis 0.0 0.0 0.0 xyz
   end
   begin
      id 7
      name Spine_dum3
      direction 0.000000 1.000000 0.000000
      length 10.329768
      axis 0.0 0.0 0.0 xyz
   end
   begin
      id 8
      name Head
      direction 0.000000 1.000000 0.000000
      length 4.527550
      axis 0.0 0.0 0.0 xyz
      dof rx ry rz
   end
   begin
      id 9
      name LeftShoulder
      direction 1.000000 0.000000 0.000000
      length 6.996006
      axis 0.0 0.0 -90.0 xyz
      dof rx ry rz
   end
   begin
      id 10
      name LeftArm
      direction 1.000000 0.000000 0.000000
      length 10.209302
      axis 0.0 0.0 -90.0 xyz
      dof rx ry rz
   end
   begin
      id 11
      name LeftForeArm
      direction 1.000000 0.000000 0.000000
      length 8.563163
      axis 0.0 0.0 -90.0 xyz
      dof ry rz rx
   end
   begin
      id 12
      name LeftHand
      direction 0.000000 0.000000 0.000000
      length 0.000000
      axis 0.0 0.0 -90.0 xyz
      dof rx ry rz
   end
   begin
      id 13
      name LeftHand_dum1
      direction 0.000000 0.000000 0.000000
      length 0.000000
      axis 0.0 0.0 -90.0 xyz
   end
   begin
      id 14
      name LeftHand_dum2
      direction 1.000000 0.000000 0.000000
      length 3.937000
      axis 0.0 0.0 -90.0 xyz
   end
   begin
      id 15
      name LeftHandThumb1
      direction 0.000000 0.000000 1.000000
      length 3.937000
      axis 0.0 0.0 -90.0 xyz
      dof rx rz ry
   end
   begin
      id 16
      name RightShoulder
      direction -1.000000 0.000000 0.000000
      length 6.996006
      axis 0.0 0.0 90.0 xyz
      dof rx ry rz
   end
   begin
      id 17
      name RightArm
      direction -1.000000 0.000000 0.000000
      length 10.209302
      axis 0.0 0.0 90.0 xyz
      dof rx ry rz
   end
   begin
      id 18
      name RightForeArm
      direction -1.000000 0.000000 0.000000
      length 8.563163
      axis 0.0 0.0 90.0 xyz
      dof ry rz rx
   end
   begin
      id 19
      name RightHand
      direction 0.000000 0.000000 0.000000
      length 0.000000
      axis 0.0 0.0 90.0 xyz
      dof rx ry rz
   end
   begin
      id 20
      name RightHand_dum1
      direction 0.000000 0.000000 0.000000
      length 0.000000
      axis 0.0 0.0 90.0 xyz
   end
   begin
      id 21
      name RightHand_dum2
      direction -1.000000 0.000000 0.000000
      length 3.937000
      axis 0.0 0.0 90.0 xyz
   end
   begin
      id 22
      name RightHandThumb1
      direction 0.000000 0.000000 1.000000
      length 3.937000
      axis 0.0 0.0 90.0 xyz
      dof rx rz ry
   end
   begin
      id 23
      name LeftUpLeg
      direction 0.000000 -1.000000 0.000000
      length 16.346831
      axis 0.0 0.0 0.0 xyz
      dof rx ry rz
   end
   begin
      id 24
      name LeftLeg
      direction 0.000000 -1.000000 0.000000
      length 13.959795
      axis 0.0 0.0 0.0 xyz
      dof rx ry rz
   end
   begin
      id 25
      name LeftFoot
      direction 0.000000 -0.258819 0.965926
      length 5.165550
      axis 15.0 0.0 0.0 xyz
      dof rx ry rz
   end
   begin
      id 26
      name LeftToeBase
      direction 0.000000 0.000000 1.000000
      length 2.952750
      axis 0.0 0.0 0.0 xyz
      dof rx ry rz
   end
   begin
      id 27
      name RightUpLeg
      direction 0.000000 -1.000000 0.000000
      length 16.346831
      axis 0.0 0.0 0.0 xyz
      dof rx ry rz
   end
   begin
      id 28
      name RightLeg
      direction 0.000000 -1.000000 0.000000
      length 13.959795
      axis 0.0 0.0 0.0 xyz
      dof rx ry rz
   end
   begin
      id 29
      name RightFoot
      direction 0.000000 -0.258819 0.965926
      length 5.165550
      axis 15.0 0.0 0.0 xyz
      dof rx ry rz
   end
   begin
      id 30
      name RightToeBase
      direction 0.000000 0.000000 1.000000
      length 2.952750
      axis 0.0 0.0 0.0 xyz
      dof rx ry rz
   end
:hierarchy
   begin
      root Spine_dum LeftUpLeg_dum RightUpLeg_dum
      Spine_dum Spine
      LeftUpLeg_dum LeftUpLeg
      RightUpLeg_dum RightUpLeg
      Spine Spine_dum1 Spine_dum2 Spine_dum3
      Spine_dum1 Head
      Spine_dum2 LeftShoulder
      Spine_dum3 RightShoulder
      LeftShoulder LeftArm
      LeftArm LeftForeArm
      LeftForeArm LeftHand
      LeftHand LeftHand_dum1 LeftHand_dum2
      LeftHand_dum1 LeftHandThumb1
      RightShoulder RightArm
      RightArm RightForeArm
      RightForeArm RightHand
      RightHand RightHand_dum1 RightHand_dum2
      RightHand_dum1 RightHandThumb1
      LeftUpLeg LeftLeg
      LeftLeg LeftFoot
      LeftFoot LeftToeBase
      RightUpLeg RightLeg
      RightLeg RightFoot
      RightFoot RightToeBase
   end

# File created by Blade
# Date/Time:  Tue Jan 27 18:55:50 2015
# Frame Rate: 120.000 fps
#------------------------------------------------------
:FULLY-SPECIFIED
:DEGREES
1222
root -1.060527 31.692153 -4.970668 1.414414 6.796353 -5.341694
Spine 0.141887 -8.833015 -1.875250
Head 19.840507 0.969622 5.840096
LeftShoulder -15.252598 14.250544 14.250688
LeftArm 12.289288 -38.573477 -73.416363
LeftForeArm -5.006925 -0.000000 88.384905
LeftHand -8.664976 0.000000 20.910704
LeftHandThumb1 -26.253704 0.000000 33.147579
RightShoulder -12.201027 -2.829895 -8.331693
RightArm 7.388686 -35.659442 79.880338
RightForeArm -26.922561 -0.000000 24.532357
RightHand -13.641393 -0.000000 12.884212
RightHandThumb1 -24.326973 -0.000000 -32.862282
LeftUpLeg -5.986340 -0.576982 -4.016442
LeftLeg 19.363190 -0.000000 -0.000000
LeftFoot -30.524545 23.847662 -22.601834
LeftToeBase 9.532581 -0.000000 -0.000000
RightUpLeg -49.037712 -2.007674 1.903480
RightLeg 108.591017 -0.000000 -0.000000
RightFoot -1.541544 -10.407930 17.189517
RightToeBase 10.682767 -0.000000 -0.000000
1223
root -1.062684 31.693984 -4.975974 1.379579 6.755555 -5.318086
Spine 0.186576 -8.778565 -1.866439
Head 19.993120 1.165346 5.681385
LeftShoulder -15.285380 14.213713 14.209933
LeftArm 12.289861 -38.477938 -73.399998
LeftForeArm -4.994886 -0.000000 88.382633
LeftHand -8.658930 -0.000000 20.929974
LeftHandThumb1 -26.253704 0.000000 33.147579
RightShoulder -12.189383 -2.841594 -8.348877
RightArm 7.420200 -35.778335 79.868425
RightForeArm -26.994152 -0.000000 24.470977
RightHand -13.804194 -0.000000 12.732119
RightHandThumb1 -24.326973 -0.000000 -32.862282
LeftUpLeg -5.941487 -0.579362 -4.037794
LeftLeg 19.330831 -0.000000 -0.000000
LeftFoot -30.505963 23.853463 -22.649327
LeftToeBase 9.491718 -0.000000 -0.000000
RightUpLeg -49.095169 -2.113228 2.084320
RightLeg 108.603719 -0.000000 -0.000000
RightFoot -1.720929 -10.585152 17.334547
RightToeBase 10.804133 -0.000000 -0.000000
1224
root -1.068476 31.696800 -4.986164 1.387454 6.755112 -5.333963
Spine 0.188046 -8.765137 -1.814434
Head 20.142731 1.321260 5.535975
LeftShoulder -15.301716 14.193840 14.181032
LeftArm 12.278076 -38.409862 -73.397390
LeftForeArm -4.942171 -0.000000 88.393825
LeftHand -8.621178 -0.000000 20.962244
LeftHandThumb1 -26.253704 0.000000 33.147579
RightShoulder -12.193475 -2.818488 -8.360972
RightArm 7.427190 -35.903171 79.850844
RightForeArm -26.969160 0.000000 24.435912
RightHand -13.917509 -0.000000 12.650703
RightHandThumb1 -24.326973 -0.000000 -32.862282
LeftUpLeg -5.973010 -0.576390 -4.011014
LeftLeg 19.338003 -0.000000 -0.000000
LeftFoot -30.491985 23.767375 -22.764855
LeftToeBase 9.368549 -0.000000 -0.000000
RightUpLeg -49.225218 -2.298621 2.359504
RightLeg 108.490206 -0.000000 -0.000000
RightFoot -1.758192 -10.797530 16.917642
RightToeBase 10.745738 -0.000000 -0.000000
1225
root -1.074987 31.700787 -4.997257 1.398902 6.751139 -5.353836
Spine 0.190890 -8.762967 -1.757331
Head 20.286759 1.503569 5.418907
LeftShoulder -15.345277 14.187408 14.127794
LeftArm 12.279283 -38.333156 -73.379217
LeftForeArm -4.946944 -0.000000 88.415174
LeftHand -8.572010 -0.000000 21.041406
LeftHandThumb1 -26.253704 0.000000 33.147579
RightShoulder -12.178444 -2.817459 -8.373909
RightArm 7.438343 -35.952122 79.840144
RightForeArm -26.961651 -0.000000 24.435868
RightHand -13.880069 -0.000000 12.823601
RightHandThumb1 -24.326973 -0.000000 -32.862282
LeftUpLeg -6.004117 -0.543790 -3.979939
LeftLeg 19.345368 -0.000000 -0.000000
LeftFoot -30.436765 23.675963 -22.763839
LeftToeBase 9.329745 -0.000000 -0.000000
RightUpLeg -49.385201 -2.533711 2.679783
RightLeg 108.247575 -0.000000 -0.000000
RightFoot -1.835282 -10.925796 16.640027
RightToeBase 11.261532 -0.000000 -0.000000
1226
root -1.080181 31.705554 -5.005503 1.416841 6.760258 -5.371930
Spine 0.176616 -8.777142 -1.696034
Head 20.448001 1.712377 5.321867
LeftShoulder -15.399536 14.212607 14.055564
LeftArm 12.245089 -38.190965 -73.254940
LeftForeArm -4.999671 -0.000000 88.427495
LeftHand -8.574961 0.000000 21.171558
LeftHandThumb1 -26.253704 0.000000 33.147579
RightShoulder -12.181872 -2.820045 -8.384192
RightArm 7.443033 -35.979829 79.823587
RightForeArm -26.973203 -0.000000 24.459035
RightHand -13.835568 -0.000000 12.880485
RightHandThumb1 -24.326973 -0.000000 -32.862282
LeftUpLeg -6.020366 -0.465257 -3.946558
LeftLeg 19.275916 -0.000000 -0.000000
LeftFoot -30.361065 23.673019 -22.677798
LeftToeBase 9.381427 -0.000000 -0.000000
RightUpLeg -49.561961 -2.853991 3.024050
RightLeg 107.861497 -0.000000 -0.000000
RightFoot -1.639899 -10.962341 15.825078
RightToeBase 11.064918 -0.000000 -0.000000
1227
root -1.083124 31.709889 -5.017661 1.449297 6.737238 -5.369413
Spine 0.162261 -8.770806 -1.652814
Head 20.601531 1.962398 5.251676
LeftShoulder -15.454097 14.252735 13.993349
LeftArm 12.265349 -38.123823 -73.256141
LeftForeArm -5.018796 0.000000 88.455152
LeftHand -8.585703 -0.000000 21.195627
LeftHandThumb1 -26.253704 0.000000 33.147579
RightShoulder -12.172373 -2.831752 -8.399149
RightArm 7.457968 -35.979263 79.806467
RightForeArm -26.987928 -0.000000 24.513147
RightHand -13.849927 0.000000 12.873380
RightHandThumb1 -24.326973 -0.000000 -32.862282
LeftUpLeg -6.039822 -0.363755 -3.943184
LeftLeg 19.186796 -0.000000 -0.000000
LeftFoot -30.262251 23.695758 -22.539931
LeftToeBase 9.412910 -0.000000 -0.000000
RightUpLeg -49.793764 -3.181768 3.364178
RightLeg 107.372213 -0.000000 -0.000000
RightFoot -1.484636 -10.880962 15.509948
RightToeBase 11.123557 -0.000000 -0.000000
